<svg xmlns="http://www.w3.org/2000/svg" width="75" height="75" viewBox="0 0 75 75"><defs><style>.a{fill:#fff;}</style></defs><g transform="translate(0.001 -0.499)"><path class="a" d="M140.3,47.18l2.146-2.145a3.465,3.465,0,0,0-4.373-5.333l-.452-1.517,2.323-2.323a3.463,3.463,0,0,0-4.562-5.192l-2.752-9.24c1.1-1.059,2.152-2.089,3.144-3.081a36.613,36.613,0,0,0,6.547-8.523c2.3-4.456,1.338-6.838.125-8.052s-3.6-2.177-8.052.125a36.58,36.58,0,0,0-8.522,6.547c-.992.992-2.023,2.044-3.081,3.144l-9.241-2.752a3.463,3.463,0,0,0-5.192-4.562L106.035,6.6l-1.518-.452a3.465,3.465,0,0,0-5.332-4.373L97.039,3.918,86.1.661a1.106,1.106,0,0,0-1.1.278L82.193,3.754a1.116,1.116,0,0,0,.129,1.674L109.91,25.621c-6.22,7.014-12.213,14.036-16.443,19.053l-8.115-3.121a1.106,1.106,0,0,0-1.179.25l-3.336,3.336a1.106,1.106,0,0,0,0,1.563L97.516,63.381a1.116,1.116,0,0,0,1.564,0l3.335-3.335a1.106,1.106,0,0,0,.25-1.179l-3.121-8.114c5.017-4.23,12.039-10.222,19.053-16.443l2.192,2.995A1.106,1.106,0,0,0,122.574,36l-2.317-3.165c3.668-3.274,7.29-6.576,10.576-9.689l10.417,34.97-1.437,1.436L125.5,39.99a1.106,1.106,0,1,0-1.784,1.306l15.079,20.6a1.116,1.116,0,0,0,1.674.129l2.815-2.815a1.106,1.106,0,0,0,.278-1.1ZM109.922,5.839a1.253,1.253,0,0,1,1.772,1.772l-.518.518-2.731-.814Zm-9.174-2.5a1.253,1.253,0,0,1,1.772,1.772l-.341.34-2.731-.813ZM84.668,4.405,86.1,2.969l34.97,10.416c-3.112,3.287-6.415,6.909-9.689,10.577Zm.561,39.469,6.732,2.589c-1.689,2.011-2.983,3.567-3.747,4.487L83.183,45.92Zm4.555,8.647c3.854-4.65,24.228-29.091,37.65-42.514a34.855,34.855,0,0,1,7.974-6.145c1.8-.933,4.219-1.781,5.474-.526s.406,3.669-.526,5.474a34.872,34.872,0,0,1-6.145,7.974C120.788,30.206,96.347,50.58,91.7,54.435Zm10.56,6.468L98.3,61.036,93.268,56c.92-.763,2.477-2.058,4.487-3.747ZM139.11,41.7a1.253,1.253,0,0,1,1.772,1.772l-1.3,1.3-.814-2.731Zm-2.5-9.174A1.253,1.253,0,0,1,138.38,34.3L136.9,35.775l-.814-2.731Zm0,0" transform="translate(-68.72)"/><path class="a" d="M396.242,433.318l-9.435,9.435a1.106,1.106,0,1,0,1.564,1.564l9.435-9.435a1.106,1.106,0,1,0-1.564-1.564Zm0,0" transform="translate(-329.874 -369.136)"/><path class="a" d="M386.217,402.675a1.105,1.105,0,1,0-1.563-1.563l-5.9,5.9a1.106,1.106,0,1,0,1.564,1.564Zm0,0" transform="translate(-323.002 -341.648)"/><path class="a" d="M372.37,362.418a1.106,1.106,0,0,0-1.564-1.564l-4.128,4.128a1.106,1.106,0,0,0,1.564,1.564Zm0,0" transform="translate(-312.693 -307.288)"/><path class="a" d="M11.322,50.88a1.107,1.107,0,0,0-1.564,0L.323,60.316a1.1,1.1,0,0,0,0,1.563,1.117,1.117,0,0,0,1.564,0l9.435-9.435a1.107,1.107,0,0,0,0-1.564Zm0,0" transform="translate(0 -42.725)"/><path class="a" d="M64.165,83.085a1.1,1.1,0,0,0-1.563,0l-5.9,5.9a1.105,1.105,0,1,0,1.563,1.563l5.9-5.9a1.105,1.105,0,0,0,0-1.564Zm0,0" transform="translate(-48.126 -70.211)"/><path class="a" d="M109.017,112.931a1.117,1.117,0,0,0,1.564,0l4.128-4.128a1.106,1.106,0,0,0-1.564-1.564l-4.128,4.128A1.107,1.107,0,0,0,109.017,112.931Zm0,0" transform="translate(-92.772 -90.827)"/></g></svg>