<svg xmlns="http://www.w3.org/2000/svg" width="75" height="75" viewBox="0 0 75 75"><defs><style>.a{fill:#fff;}</style></defs><g transform="translate(0 -0.025)"><g transform="translate(51.617 39.575)"><path class="a" d="M328.065,257.116l-4.952-3.056a.766.766,0,1,0-.8,1.3l4.952,3.056a.766.766,0,0,0,.8-1.3Z" transform="translate(-321.948 -253.949)"/></g><g transform="translate(42.983 34.805)"><path class="a" d="M288.643,232.915a.771.771,0,0,0-.746.941.785.785,0,0,0,.346.47.746.746,0,0,0,.4.119.76.76,0,0,0,.652-.364A.784.784,0,0,0,288.643,232.915Z" transform="translate(-287.877 -232.915)"/></g><g transform="translate(17.886 39.537)"><path class="a" d="M117.944,253.929a.788.788,0,0,0-1.056-.239l-4.922,3.1a.771.771,0,0,0-.239,1.055.8.8,0,0,0,.649.345.724.724,0,0,0,.407-.1l4.922-3.1A.771.771,0,0,0,117.944,253.929Z" transform="translate(-111.611 -253.58)"/></g><g transform="translate(31.315 34.69)"><path class="a" d="M210.474,232.145a.766.766,0,1,0,.748.935A.768.768,0,0,0,210.474,232.145Z" transform="translate(-209.71 -232.145)"/></g><g transform="translate(0.001 0.025)"><g transform="translate(0 0)"><path class="a" d="M74.641,66.746a1.465,1.465,0,0,0-2.067-.144c-1.562,1.358-3.007,2.766-5.057,3.333a8.9,8.9,0,0,1-6.505-.9l7.629-25.67A1.465,1.465,0,0,0,68,41.7l-7.058-4.277V24.93a1.465,1.465,0,0,0-1.465-1.465h-2.93V19.07A1.465,1.465,0,0,0,55.079,17.6H50.464V13.21A1.465,1.465,0,0,0,49,11.745H41.9V1.49A1.465,1.465,0,0,0,40.43.025H34.571A1.465,1.465,0,0,0,33.106,1.49V11.745H26a1.465,1.465,0,0,0-1.465,1.465V17.6H19.922a1.465,1.465,0,0,0-1.465,1.465v4.395h-2.93a1.465,1.465,0,0,0-1.465,1.465V37.419L7.005,41.7a1.465,1.465,0,0,0-.645,1.67l7.613,25.618c-.13-.437-2.474-.725-2.888-.779C6.82,67.653,3.577,69.79.5,72.462A1.465,1.465,0,0,0,.36,74.528a1.483,1.483,0,0,0,2.066.144c3.165-2.752,6.734-4.85,10.922-2.755,3.789,1.894,7.71,2.707,11.656.63,3.182-1.675,6.253-3.121,9.8-1.43l3.651,1.739a11.084,11.084,0,0,0,9.785-.094c1.907-.954,3.845-2.223,6.023-2.372a11.984,11.984,0,0,1,6.074,1.587,11.206,11.206,0,0,0,8.041.728c2.451-.7,4.235-2.26,6.113-3.893A1.465,1.465,0,0,0,74.641,66.746ZM58.008,26.395v9.249L42.745,26.395ZM36.036,2.955h2.93v8.79h-2.93Zm-8.569,11.72H47.535V17.6H27.466ZM16.993,26.395H32.256L16.993,35.644ZM36.036,68.457c0-.26-2.088-.741-2.361-.8a11.309,11.309,0,0,0-7.6,1.015,15.745,15.745,0,0,1-5.213,2.159h-.011A8.387,8.387,0,0,1,17.5,70.57L9.491,43.616,36.036,27.53ZM21.387,23.465v-2.93H53.614v2.93ZM58.3,67.862c.016-.453-4.107-.449-4.384-.42-2.543.269-4.742,1.577-6.986,2.7-2.651,1.326-5.378.944-7.969-.29V27.53L65.51,43.616Z" transform="translate(-0.001 -0.025)"/></g></g></g></svg>